HIERARCHY
ROOT Hips
{
	OFFSET 0.00000 0.00000 0.00000
	CHANNELS 6 Xposition Yposition Zposition Yrotation Zrotation Xrotation 
	JOINT Lumbar
	{
		OFFSET 0 0 0
		CHANNELS 3 Zrotation Xrotation Yrotation
		JOINT Neck
		{
			OFFSET 0.00 0.2701 0.00
			CHANNELS 3 Zrotation Xrotation Yrotation
			End Site
			{
				OFFSET 0.00 0.1379 0.00
			}
		}
		JOINT RightShoulder
		{
			OFFSET 0.0119 0.2289 0.1181
			CHANNELS 3 Zrotation Xrotation Yrotation
			JOINT RightElbow
			{
				OFFSET 0.00 -0.1475 0.00
				CHANNELS 2 Zrotation Yrotation
				JOINT RightWrist
				{
					OFFSET 0.00 -0.1605 0.00
					CHANNELS 2 Zrotation Xrotation
					End Site
					{
						OFFSET 0.0040 -0.1068 0.0006
					}
				}
			}
		}
		JOINT LeftShoulder
		{
			OFFSET 0.0119 0.2289 -0.1181
			CHANNELS 3 Zrotation Xrotation Yrotation
			JOINT LeftElbow
			{
				OFFSET 0.00 -0.1475 0.00
				CHANNELS 2 Zrotation Yrotation
				JOINT LeftWrist
				{
					OFFSET 0.00 -0.1605 0.00
					CHANNELS 2 Zrotation Xrotation
					End Site
					{
						OFFSET 0.0040 -0.1068 -0.0006
					}
				}
			}
		}
	}
	JOINT RightHip
	{
		OFFSET 0.0316 -0.0424 0.0458
		CHANNELS 3 Zrotation Xrotation Yrotation
		JOINT RightKnee
		{
			OFFSET 0.00 -0.2438 0.00
			CHANNELS 1 Zrotation
			JOINT RightAnkle
			{
				OFFSET 0.00 -0.2449 0.00
				CHANNELS 3 Zrotation Xrotation Yrotation
				End Site
				{
					OFFSET 0.1237 -0.0542 0.0051
				}
			}
		}
	}
	JOINT LeftHip
	{
		OFFSET 0.0316 -0.0424 -0.0458
		CHANNELS 3 Zrotation Xrotation Yrotation
		JOINT LeftKnee
		{
			OFFSET 0.00 -0.2438 0.00
			CHANNELS 1 Zrotation
			JOINT LeftAnkle
			{
				OFFSET 0.00 -0.2449 0.00
				CHANNELS 3 Zrotation Xrotation Yrotation
				End Site
				{
					OFFSET 0.1237 -0.0542 -0.0051
				}
			}
		}
	}
}
MOTION
Frames: 16
Frame Time: 0.02
0.00135 -0.00012 -0.00164 -50.47546 -25.78492 3.08038 39.83634 1.21589 -9.32586 -15.40944 -4.4226 -0.48941 -27.18842 -11.41756 2.25702 46.04383 83.4808 -0.49326 0.11227 -22.39176 12.4442 -3.92652 30.18614 -81.86102 -2.35921 -5.89627 41.69437 0.37669 -3.40369 -19.3485 -9.07038 -3.27195 -2.42329 36.61781 4.70215 3.1086 -27.72391 -10.08612 5.81474 3.98004
3e-05 -0.0003 -0.00196 -50.54447 -25.83984 3.14415 39.25583 1.19718 -9.4 -15.47717 -4.89288 -0.4969 -27.59596 -11.49134 2.33696 46.24263 83.49789 -0.48401 0.11956 -22.04166 12.41679 -4.21977 29.70477 -81.85869 -2.32972 -5.69663 41.84386 0.38262 -3.93458 -19.35411 -9.07325 -3.22438 -2.40064 36.7267 4.81465 3.41813 -27.71136 -10.04988 5.7976 3.96529
-0.00128 -0.00049 -0.00227 -50.61301 -25.89479 3.20777 38.67646 1.17862 -9.47427 -15.54476 -5.36244 -0.50437 -28.00277 -11.56536 2.41695 46.44117 83.51497 -0.47467 0.12687 -21.69195 12.38951 -4.51294 29.22484 -81.8564 -2.30024 -5.49728 41.99322 0.38862 -4.46373 -19.35985 -9.07611 -3.17699 -2.37807 36.83554 4.92693 3.72673 -27.69887 -10.01372 5.78048 3.95058
-0.0026 -0.00067 -0.00258 -50.68179 -25.94956 3.27134 38.09762 1.15998 -9.54825 -15.61229 -5.8314 -0.51183 -28.40914 -11.63898 2.49671 46.63943 83.53198 -0.46545 0.13415 -21.34281 12.36219 -4.80543 28.74491 -81.85409 -2.27084 -5.29821 42.1423 0.39455 -4.99297 -19.36547 -9.07897 -3.12957 -2.3555 36.94412 5.03912 4.03538 -27.68636 -9.97758 5.76339 3.93587
-0.00392 -0.00086 -0.0029 -50.75108 -26.00425 3.33505 37.51792 1.14117 -9.62194 -15.6799 -6.30079 -0.51931 -28.81602 -11.71221 2.57626 46.83777 83.54908 -0.45631 0.14139 -20.99353 12.33474 -5.09768 28.26367 -81.85174 -2.24144 -5.09896 42.29138 0.40039 -5.524 -19.37089 -9.08182 -3.08199 -2.33284 37.05267 5.15141 4.34477 -27.67379 -9.94139 5.74628 3.92115
-0.00523 -0.00104 -0.00321 -50.81802 -26.05976 3.3985 36.93928 1.12314 -9.69742 -15.74743 -6.77064 -0.52676 -29.22263 -11.78786 2.65715 47.03668 83.56617 -0.44651 0.14883 -20.64295 12.30785 -5.39274 27.78657 -81.84956 -2.21176 -4.89942 42.44131 0.40671 -6.04916 -19.3773 -9.08471 -3.03498 -2.31047 37.16212 5.26367 4.65158 -27.66148 -9.9053 5.72916 3.90646
-0.00655 -0.00123 -0.00353 -50.88974 -26.11349 3.46236 36.35911 1.10355 -9.76925 -15.81509 -7.23909 -0.53426 -29.6294 -11.85856 2.73535 47.23437 83.58301 -0.4382 0.15588 -20.29538 12.2798 -5.68189 27.30141 -81.84705 -2.18275 -4.70073 42.58935 0.41206 -6.58551 -19.38174 -9.08754 -2.98687 -2.28754 37.26957 5.37597 4.96373 -27.64865 -9.869 5.71206 3.89169
-0.00787 -0.00141 -0.00384 -50.95684 -26.16899 3.52591 35.78042 1.08542 -9.84439 -15.88258 -7.70877 -0.54171 -30.03592 -11.93379 2.81585 47.43289 83.60055 -0.42823 0.16328 -19.94501 12.25292 -5.97637 26.82417 -81.84484 -2.15301 -4.50116 42.73917 0.41829 -7.11163 -19.38797 -9.09039 -2.93979 -2.26514 37.37899 5.48803 5.27006 -27.6363 -9.833 5.69499 3.87703
-0.00918 -0.0016 -0.00414 -51.01913 -26.22622 3.58886 35.2029 1.06899 -9.92392 -15.95009 -8.18055 -0.54913 -30.4428 -12.01484 2.89999 47.63377 83.6171 -0.41733 0.17116 -19.59107 12.22708 -6.27811 26.35444 -81.84302 -2.12278 -4.30073 42.89116 0.42571 -7.62507 -19.3965 -9.0934 -2.89389 -2.24332 37.49043 5.60069 5.57298 -27.62452 -9.79692 5.67777 3.86237
-0.01052 -0.00179 -0.00453 -51.11158 -26.27216 3.65457 34.6167 1.04252 -9.97921 -16.01819 -8.64205 -0.55681 -30.84962 -12.06324 2.96569 47.82512 83.63378 -0.4151 0.17643 -19.2572 12.19409 -6.54033 25.83498 -81.83902 -2.09657 -4.10592 43.03064 0.4266 -8.21096 -19.39214 -9.09591 -2.84094 -2.21797 37.58906 5.71259 5.90664 -27.60942 -9.75995 5.66085 3.84734
-0.01179 -0.00197 -0.00471 -51.13882 -26.34276 3.71492 34.05018 1.03739 -10.08494 -16.08456 -9.12398 -0.5639 -31.25519 -12.17995 3.06862 48.03394 83.65375 -0.39247 0.18709 -18.88137 12.17694 -6.88437 25.42462 -81.83958 -2.06116 -3.89887 43.19647 0.44105 -8.6443 -19.41473 -9.09918 -2.80304 -2.20016 37.71544 5.82434 6.16835 -27.60137 -9.72571 5.64364 3.83332
-0.0129 -0.00211 -0.00435 -50.99808 -26.47418 3.75649 33.52651 1.09015 -10.33583 -16.15024 -9.67229 -0.56954 -31.66821 -12.49057 3.28903 48.31187 83.65289 -0.33118 0.21363 -18.38638 12.19699 -7.46685 25.28319 -81.85302 -2.00666 -3.66078 43.43491 0.49501 -8.65232 -19.51388 -9.10696 -2.80554 -2.20263 37.91192 5.95109 6.29202 -27.61218 -9.69161 5.62263 3.81993
-0.01393 -0.00225 -0.00377 -50.7897 -26.63118 3.79334 33.02464 1.16453 -10.63579 -16.21348 -10.23861 -0.57455 -32.07752 -12.86846 3.54423 48.60267 83.66045 -0.24661 0.2454 -17.85052 12.23389 -8.12782 25.25763 -81.87096 -1.94217 -3.4099 43.69903 0.56228 -8.50829 -19.63949 -9.11503 -2.82336 -2.21277 38.13673 6.07552 6.33467 -27.63003 -9.66132 5.60176 3.80786
-0.01499 -0.00239 -0.00326 -50.60523 -26.78147 3.83509 32.52008 1.2294 -10.9093 -16.27514 -10.79075 -0.57974 -32.48201 -13.21153 3.77317 48.87472 83.6842 -0.16087 0.27397 -17.33527 12.26748 -8.74523 25.19805 -81.88665 -1.87775 -3.16323 43.9521 0.62175 -8.43835 -19.75139 -9.1214 -2.83471 -2.21961 38.35337 6.19009 6.37276 -27.64511 -9.63448 5.58294 3.79672
-0.01608 -0.00252 -0.00288 -50.44988 -26.91283 3.86553 31.98515 1.29276 -11.20175 -16.34798 -11.37075 -0.5854 -32.91583 -13.57319 4.04528 49.20434 83.62522 -0.123 0.30583 -16.80911 12.2837 -9.40069 25.05724 -81.90329 -1.83058 -2.92338 44.20555 0.68805 -8.34745 -19.87087 -9.13448 -2.84384 -2.22556 38.55293 6.3479 6.57619 -27.65889 -9.58699 5.55572 3.77952
-0.01708 -0.00268 -0.00217 -50.2173 -27.08749 3.91803 31.51856 1.36466 -11.4647 -16.39717 -11.89383 -0.58992 -33.28535 -13.91141 4.23701 49.41326 83.73835 0.01798 0.33236 -16.2988 12.33891 -9.98976 25.11659 -81.9189 -1.74714 -2.66618 44.46063 0.744 -8.26366 -19.98032 -9.13356 -2.86145 -2.23533 38.79134 6.41863 6.42756 -27.67644 -9.58188 5.54541 3.77477
